
<svg width="179" height="273" viewBox="0 0 179 273" fill="none" xmlns="http://www.w3.org/2000/svg">
<path opacity="0.6" fill-rule="evenodd" clip-rule="evenodd" d="M0 4.63947C0 2.07716 2.07717 0 4.63948 0H173.98C176.543 0 178.62 2.07717 178.62 4.63948V267.93C178.62 270.492 176.543 272.569 173.98 272.569H4.63948C2.07717 272.569 0 270.492 0 267.93V4.63947ZM162.381 14.5996H16.2376C15.3322 14.5996 14.5981 15.3336 14.5981 16.2391V256.332C14.5981 257.238 15.3322 257.972 16.2376 257.972H162.381C163.287 257.972 164.021 257.238 164.021 256.332V16.2391C164.021 15.3336 163.287 14.5996 162.381 14.5996ZM16.2376 11.5996C13.6753 11.5996 11.5981 13.6768 11.5981 16.2391V256.332C11.5981 258.895 13.6753 260.972 16.2376 260.972H162.381C164.944 260.972 167.021 258.895 167.021 256.332V16.2391C167.021 13.6768 164.944 11.5996 162.381 11.5996H16.2376ZM73.8552 154.146C72.4685 155.017 71.1785 155.952 69.9852 156.951L73.952 163.047C74.6292 164.24 75.6612 164.837 77.048 164.837C77.6607 164.837 78.2735 164.659 78.8862 164.305C79.499 163.95 80.2085 163.563 81.0147 163.143C81.8532 162.692 82.8369 162.289 83.9656 161.934C85.1266 161.579 86.5617 161.402 88.271 161.402C90.4962 161.402 92.2377 161.982 93.4955 163.143C94.7855 164.272 95.4305 165.804 95.4305 167.739C95.4305 169.352 95.0919 170.755 94.4146 171.948C93.7374 173.109 92.8827 174.173 91.8507 175.141C90.8187 176.076 89.7061 176.963 88.5128 177.801C87.3196 178.607 86.207 179.462 85.175 180.365C84.143 181.236 83.2884 182.203 82.6111 183.268C81.9339 184.332 81.5952 185.573 81.5952 186.992V187.573L81.692 188.153L82.7562 195.942H93.0117L94.3662 189.169C94.5597 188.169 95.0596 187.266 95.8658 186.46C96.7043 185.654 97.6719 184.832 98.7683 183.993C99.8971 183.155 101.074 182.268 102.3 181.333C103.557 180.365 104.702 179.22 105.734 177.898C106.799 176.576 107.669 175.028 108.347 173.254C109.024 171.48 109.362 169.352 109.362 166.868C109.362 164.288 108.895 161.95 107.96 159.854C107.057 157.726 105.75 155.92 104.041 154.436C102.332 152.92 100.252 151.759 97.8008 150.953C95.3821 150.147 92.657 149.744 89.6255 149.744C87.4647 149.744 85.4491 149.937 83.5786 150.324C81.7403 150.679 80.015 151.195 78.4025 151.872C76.79 152.517 75.2742 153.275 73.8552 154.146ZM79.5151 210.164C79.0958 211.164 78.8862 212.244 78.8862 213.405C78.8862 214.566 79.0958 215.663 79.5151 216.695C79.9666 217.694 80.5632 218.565 81.305 219.307C82.079 220.049 82.982 220.629 84.014 221.048C85.046 221.468 86.1747 221.677 87.4002 221.677C88.5935 221.677 89.7061 221.468 90.7381 221.048C91.7701 220.629 92.6731 220.049 93.4471 219.307C94.2211 218.565 94.8177 217.694 95.237 216.695C95.6885 215.663 95.9142 214.566 95.9142 213.405C95.9142 212.244 95.6885 211.164 95.237 210.164C94.8177 209.164 94.2211 208.294 93.4471 207.552C92.6731 206.81 91.7701 206.23 90.7381 205.81C89.7061 205.359 88.5935 205.133 87.4002 205.133C86.1747 205.133 85.046 205.359 84.014 205.81C82.982 206.23 82.079 206.81 81.305 207.552C80.5632 208.294 79.9666 209.164 79.5151 210.164ZM89.7794 79.0493C92.9975 74.3612 96.2157 69.6731 99.4338 65.0247C102.533 60.5352 105.592 56.0854 108.651 51.5959C108.929 51.1987 109.247 51.0397 109.724 51.0397C113.578 51.0795 117.392 51.0795 121.246 51.0397C121.841 51.0397 122 51.1987 122 51.7946C121.961 63.5944 121.961 75.3942 122 87.1543C122 87.8297 121.683 87.8297 121.206 87.8297H105.036C104.958 87.8297 104.876 87.8202 104.791 87.8105C104.531 87.7805 104.253 87.7484 104.042 87.9886C104.042 88.3461 103.844 88.664 103.645 88.9421C101.963 91.0947 100.342 93.309 98.7249 95.5178L98.7248 95.518C97.7455 96.8558 96.7677 98.1915 95.7786 99.5103C95.7276 99.5783 95.6803 99.6517 95.6327 99.7255L95.6326 99.7257C95.4577 99.997 95.2793 100.274 94.9046 100.305C93.2361 100.325 91.5577 100.335 89.8792 100.345C88.2005 100.355 86.5217 100.364 84.8529 100.384C84.4443 100.384 84.2691 100.122 84.1023 99.8714C84.0745 99.8297 84.047 99.7884 84.0186 99.7486C81.635 96.6897 79.3308 93.6307 77.0266 90.5717L77.0261 90.571C76.5497 90.4043 76.3018 90.0233 76.0426 89.6251C75.8696 89.3591 75.6915 89.0854 75.4369 88.8626C75.3518 89.0613 75.368 89.2599 75.3842 89.4586C75.3907 89.538 75.3972 89.6175 75.3972 89.697V107.138C75.3972 107.229 75.4009 107.321 75.4046 107.414C75.4219 107.847 75.4396 108.288 75.0793 108.648C74.7615 108.688 74.4437 108.728 74.1258 108.728C68.802 108.728 63.4782 108.728 58.1544 108.767C57.3598 108.767 57.2009 108.529 57.2009 107.774C57.2009 89.1805 57.2009 70.5471 57.1611 51.9535C57.1611 51.1987 57.3598 51 58.0749 51C61.5712 51.0397 65.0674 51.0397 68.5239 51C69.5171 51 70.3117 51.1192 70.7488 52.1124C70.8385 52.3516 71.0181 52.5457 71.2031 52.7457C71.264 52.8115 71.3254 52.8779 71.3845 52.9468C72.1812 53.6396 72.7363 54.4835 73.2868 55.3203L73.2869 55.3204C73.3678 55.4433 73.4485 55.5661 73.5299 55.6881C77.3439 61.2901 81.1978 66.8522 85.0913 72.3747C86.5613 74.4009 87.9916 76.4669 89.3424 78.5726C89.3729 78.6133 89.4009 78.6592 89.4295 78.7064C89.5127 78.8432 89.6021 78.9902 89.7794 79.0493ZM106.848 108.564C107.068 108.798 107.505 108.828 108.373 108.887C108.723 109.167 109.104 109.2 109.462 109.232C109.51 109.236 109.558 109.24 109.605 109.245H120.61C120.646 109.245 120.683 109.245 120.719 109.245C121.125 109.248 121.55 109.251 121.842 108.887C121.842 108.827 121.852 108.768 121.861 108.708C121.871 108.649 121.881 108.589 121.881 108.529C121.881 103.722 121.881 98.875 121.921 94.0677C121.921 93.3526 121.524 93.3526 121.007 93.3526C116.597 93.3526 112.147 93.3526 107.698 93.3129C106.784 93.2731 106.625 93.591 106.625 94.4253V106.98C106.625 107.88 106.625 108.327 106.848 108.564Z" fill="#EAEAFF"/>
</svg>
