
<svg width="169" height="109" viewBox="0 0 169 109" fill="none" xmlns="http://www.w3.org/2000/svg">
<path opacity="0.5" d="M47.185 106.397C73.2445 106.397 94.37 85.2716 94.37 59.2121C94.37 33.1525 73.2445 12.0271 47.185 12.0271C21.1254 12.0271 0 33.1525 0 59.2121C0 85.2716 21.1254 106.397 47.185 106.397Z" fill="#C9C9FF"/>
<path d="M125.207 1.50976L131.645 0.599091L129.771 16.0859L125.207 1.50976Z" fill="#B998FF"/>
<path d="M126.517 2.47255L132.954 1.56189L131.112 17.0483L126.517 2.47255Z" stroke="#340C87" stroke-width="0.790368" stroke-miterlimit="10"/>
<path d="M148.903 1.27405L154.538 4.49063L143.598 15.6264L148.903 1.27405Z" fill="#B998FF"/>
<path d="M149.362 2.85521L155.028 6.06473L144.05 17.1767L149.362 2.85521Z" stroke="#340C87" stroke-width="0.790368" stroke-miterlimit="10"/>
<path d="M167.048 19.6495L168.971 25.855L153.366 26.5067L167.048 19.6495Z" fill="#B998FF"/>
<path d="M166.3 21.1254L168.223 27.331L152.65 27.9817L166.3 21.1254Z" stroke="#340C87" stroke-width="0.790368" stroke-miterlimit="10"/>
<path d="M25.72 61.7617L5.86959 77.251C5.64402 77.9277 5.41845 78.5668 5.23047 79.2812L27.7878 61.6489C27.111 61.6489 26.3967 61.6865 25.72 61.7617Z" fill="#340C87"/>
<path d="M37.1495 63.3401L4.74219 88.7171C4.81738 89.1682 4.85497 89.6194 4.96776 90.0705L38.3902 63.9041C37.9766 63.7161 37.5631 63.5281 37.1495 63.3401Z" fill="#340C87"/>
<path d="M44.5565 68.0768L7.6377 97.0253C7.82567 97.3637 8.05125 97.702 8.27682 98.0404L45.4212 68.9039C45.1204 68.6407 44.8572 68.3775 44.5565 68.0768Z" fill="#340C87"/>
<path d="M49.5179 74.7321L13.0127 103.38C13.3135 103.643 13.6894 103.869 13.9902 104.132L50.0443 75.8224C49.8939 75.4464 49.7059 75.108 49.5179 74.7321Z" fill="#340C87"/>
<path d="M51.9245 83.3783L20.9834 107.74C21.4721 107.891 21.9609 108.003 22.4496 108.116L52.0373 84.8445C51.9997 84.3558 51.9621 83.867 51.9245 83.3783Z" fill="#340C87"/>
<path d="M47.6389 98.9058C48.3156 97.9659 48.9171 96.9885 49.4434 95.9734L33.9541 108.192C35.082 107.929 36.1722 107.59 37.2249 107.139L47.6389 98.9058Z" fill="#340C87"/>
<g filter="url(#filter0_d_3121_2860)">
<path d="M143.993 49.232C144.228 49.232 144.449 49.232 144.684 49.2627V32.4921C144.456 32.4921 144.235 32.4921 143.993 32.4921C141.185 32.4921 138.491 31.5003 136.505 29.7349C134.519 27.9694 133.404 25.575 133.404 23.0783C133.404 22.9739 133.404 22.8756 133.404 22.7712H57.0342V94.4958H133.418C133.418 94.3914 133.418 94.2932 133.418 94.1888C133.418 91.6921 134.533 89.2976 136.519 87.5322C138.505 85.7668 141.198 84.775 144.007 84.775C144.242 84.775 144.463 84.7749 144.698 84.8056V68.0351C144.47 68.0351 144.249 68.0658 144.007 68.0658C141.244 68.0031 138.619 66.9834 136.69 65.2243C134.761 63.4651 133.681 61.1056 133.681 58.6489C133.681 56.1922 134.761 53.8327 136.69 52.0735C138.619 50.3143 141.244 49.2947 144.007 49.232H143.993Z" fill="#2D2D2D"/>
<path d="M91.4677 57.6059C93.7763 54.2428 96.0849 50.8796 98.3935 47.545C100.617 44.3244 102.811 41.1323 105.006 37.9116C105.205 37.6266 105.433 37.5126 105.775 37.5126C108.54 37.5411 111.276 37.5411 114.041 37.5126C114.468 37.5126 114.582 37.6266 114.582 38.0542C114.554 46.519 114.554 54.9838 114.582 63.4201C114.582 63.9046 114.354 63.9046 114.012 63.9046C110.136 63.9046 106.288 63.9046 102.412 63.9046C102.184 63.9046 101.899 63.7906 101.7 64.0186C101.7 64.2751 101.557 64.5031 101.415 64.7027C99.4765 67.1822 97.6525 69.7758 95.7714 72.2839C95.6004 72.5119 95.4864 72.8255 95.1444 72.854C92.7503 72.8825 90.3277 72.8825 87.9336 72.911C87.5916 72.911 87.4776 72.6545 87.3351 72.4549C85.625 70.2604 83.972 68.0658 82.3189 65.8712C81.7489 65.6717 81.6349 65.0447 81.1789 64.6457C81.0934 64.8452 81.1504 65.0447 81.1504 65.2442C81.1504 69.4053 81.1504 73.595 81.1504 77.7561C81.1504 78.1267 81.2359 78.5257 80.9223 78.8392C80.6943 78.8677 80.4663 78.8962 80.2383 78.8962C76.4192 78.8962 72.6 78.8962 68.7809 78.9247C68.2109 78.9247 68.0969 78.7537 68.0969 78.2122C68.0969 64.8737 68.0969 51.5067 68.0684 38.1682C68.0684 37.6266 68.2109 37.4841 68.7239 37.4841C71.232 37.5126 73.7401 37.5126 76.2197 37.4841C76.9322 37.4841 77.5022 37.5696 77.8157 38.2822C77.9012 38.5102 78.1007 38.6812 78.2717 38.8807C78.9273 39.4507 79.3548 40.1632 79.8108 40.8473C82.5469 44.8659 85.3115 48.8561 88.1046 52.8177C89.1592 54.2713 90.1852 55.7533 91.1542 57.2639C91.2397 57.3779 91.2967 57.5489 91.4677 57.6059Z" fill="#FEFEFE"/>
<path d="M104.55 78.9783C107.77 78.9783 110.991 78.9498 114.212 78.9498C114.497 78.7788 114.383 78.4938 114.383 78.2658C114.383 75.4442 114.411 72.6226 114.383 69.8009C114.383 69.3164 114.468 69.0314 115.01 69.1454C115.494 69.2309 115.865 69.3449 115.694 69.972C115.637 70.2285 115.637 70.5135 115.637 70.77C115.637 73.6201 115.608 76.4987 115.665 79.3488C115.665 80.0613 115.437 80.2038 114.782 80.2038C111.818 80.1753 108.825 80.1753 105.861 80.2038C104.407 80.2038 104.578 80.2893 104.55 78.9783Z" fill="#3A3939"/>
<path d="M104.807 79.0105C103.553 78.925 103.553 78.925 103.553 77.6424C103.553 74.6498 103.553 71.6287 103.553 68.6361C103.553 68.0376 103.667 67.8096 104.322 67.8381C107.514 67.8666 110.707 67.8666 113.87 67.8666C114.241 67.8666 114.526 67.8666 114.526 68.3796C114.497 71.8282 114.497 75.3053 114.497 78.754C114.497 78.8395 114.469 78.925 114.469 79.0105C114.241 79.2955 113.899 79.267 113.585 79.267C110.963 79.267 108.341 79.267 105.69 79.267C105.405 79.2385 105.092 79.2385 104.807 79.0105Z" fill="#FE0918"/>
<path d="M95.1156 72.8538C97.3102 69.8897 99.5047 66.954 101.699 63.9899C105.803 63.9899 109.936 63.9899 114.04 64.0184C114.667 64.0184 114.667 63.7049 114.667 63.2489C114.667 55.3541 114.667 47.4593 114.639 39.5645C114.639 38.9945 114.781 38.8235 115.351 38.8235C115.95 38.852 115.864 39.194 115.864 39.5645C115.864 47.6303 115.864 55.6676 115.864 63.7334C115.864 63.9044 115.864 64.1039 115.864 64.2749C115.921 65.2155 115.921 65.2155 114.952 65.2155C111.333 65.2155 107.713 65.2155 104.093 65.2155C103.438 65.2155 103.01 65.3865 102.611 65.928C100.844 68.3791 99.0487 70.7732 97.2532 73.1958C96.6831 73.9653 96.0561 74.4783 94.9731 74.3928C93.491 74.2788 91.9805 74.3073 90.4699 74.3928C89.3584 74.4498 88.5603 74.1933 88.1328 73.0248C88.4463 73.0248 88.7598 73.0248 89.1018 73.0248C90.8689 73.0248 92.6645 73.0248 94.4315 73.0248C94.6596 73.0248 94.9446 73.1388 95.1156 72.8538Z" fill="#3A3939"/>
<path d="M80.9225 78.8394C80.9225 73.9372 80.9225 69.035 80.9225 64.0188C81.521 64.6173 81.92 65.2158 82.319 65.8714C82.319 70.346 82.2905 74.8207 82.2905 79.3239C82.2905 80.2644 82.2905 80.2644 81.3215 80.2644C77.5878 80.2644 73.8542 80.2644 70.1205 80.2644C69.7785 80.2644 69.4365 80.3214 69.3225 79.8369C69.18 79.2669 69.3225 79.0389 69.921 79.0389C73.3412 79.0389 76.7328 79.0389 80.1529 79.0389C80.4094 79.0389 80.7229 79.1814 80.9225 78.8394Z" fill="#3A3939"/>
<path d="M91.4685 57.606C91.2119 57.8055 91.1834 57.5205 91.0979 57.4065C89.0174 54.3854 86.9368 51.3642 84.8277 48.3716C82.7756 45.4075 80.7236 42.4719 78.6715 39.5078C78.529 39.3083 78.415 39.0803 78.2725 38.8808C78.643 38.8523 78.7855 39.1088 78.9565 39.3653C80.524 41.5599 82.0346 43.783 83.5167 46.006C84.6567 47.6876 85.8822 49.3122 87.0508 50.9652C87.9913 52.3048 88.8464 53.6728 89.7869 54.9839C90.2714 55.6109 90.5849 56.3519 91.1264 56.9505C91.326 57.15 91.4115 57.378 91.4685 57.606Z" fill="#B998FF"/>
<path d="M144.305 49.1867C144.514 49.1867 144.71 49.1867 144.918 49.2174V32.4755C144.716 32.4755 144.52 32.4755 144.305 32.4755C141.813 32.4755 139.422 31.4854 137.66 29.723C135.898 27.9605 134.907 25.5702 134.907 23.0778C134.907 22.9735 134.907 22.8755 134.907 22.7712H127.036C127.036 22.8755 127.036 22.9735 127.036 23.0778C127.036 25.5702 128.026 27.9605 129.789 29.723C131.551 31.4854 133.941 32.4755 136.434 32.4755C136.642 32.4755 136.838 32.4755 137.047 32.4755V49.2235C136.845 49.2235 136.648 49.1929 136.434 49.1929C133.982 49.2555 131.652 50.2734 129.94 52.0296C128.228 53.7857 127.27 56.1412 127.27 58.5937C127.27 61.0462 128.228 63.4016 129.94 65.1578C131.652 66.914 133.982 67.9319 136.434 67.9945C136.642 67.9945 136.838 67.9945 137.047 67.9639V84.7057C136.845 84.7057 136.648 84.6751 136.434 84.6751C133.943 84.6751 131.553 85.6644 129.791 87.4255C128.029 89.1866 127.038 91.5753 127.036 94.0667C127.036 94.1709 127.036 94.269 127.036 94.3732H134.92C134.92 94.269 134.92 94.1709 134.92 94.0667C134.92 91.5743 135.91 89.1839 137.672 87.4215C139.435 85.6591 141.825 84.669 144.317 84.669C144.526 84.669 144.722 84.669 144.931 84.6996V67.9577C144.728 67.9577 144.532 67.9884 144.317 67.9884C141.866 67.9258 139.536 66.9079 137.824 65.1517C136.112 63.3955 135.154 61.0401 135.154 58.5876C135.154 56.1351 136.112 53.7796 137.824 52.0234C139.536 50.2673 141.866 49.2493 144.317 49.1867H144.305Z" fill="#3A3939"/>
<path d="M28.2934 22.7715C28.2934 22.8759 28.2934 22.9742 28.2934 23.0786C28.2934 24.3153 28.113 25.5399 27.7626 26.6824C27.4122 27.8249 26.8985 28.8631 26.251 29.7375C25.6034 30.612 24.8347 31.3056 23.9887 31.7789C23.1426 32.2521 22.2359 32.4957 21.3201 32.4957C21.1655 32.4957 21.0199 32.4957 20.8652 32.4957V49.2474C21.0153 49.2474 21.1609 49.2167 21.3201 49.2167C23.1393 49.2794 24.8684 50.2995 26.1386 52.0592C27.4089 53.819 28.1198 56.1793 28.1198 58.6369C28.1198 61.0944 27.4089 63.4547 26.1386 65.2145C24.8684 66.9743 23.1393 67.9943 21.3201 68.057C21.1655 68.057 21.0199 68.057 20.8652 68.0263V84.8026C21.0153 84.8026 21.1609 84.7719 21.3201 84.7719C23.1695 84.7719 24.9432 85.764 26.251 87.5301C27.5587 89.2961 28.2934 91.6914 28.2934 94.1889C28.2934 94.2934 28.2934 94.3917 28.2934 94.4961H55.195V22.7715H28.2934Z" fill="white"/>
<path d="M145.158 49.3517C145.398 49.3517 145.624 49.3517 145.865 49.3824V32.6392C145.632 32.6392 145.406 32.6392 145.158 32.6392C142.287 32.6392 139.533 31.649 137.503 29.8865C135.473 28.1239 134.332 25.7334 134.332 23.2408C134.332 23.1365 134.332 23.0385 134.332 22.9342H56.251V94.5416H134.346C134.346 94.4374 134.346 94.3393 134.346 94.2351C134.346 91.7424 135.487 89.3519 137.517 87.5893C139.547 85.8268 142.301 84.8366 145.173 84.8366C145.413 84.8366 145.639 84.8366 145.879 84.8672V68.1241C145.646 68.1241 145.42 68.1548 145.173 68.1548C142.348 68.0922 139.664 67.0742 137.691 65.3179C135.719 63.5616 134.616 61.2059 134.616 58.7532C134.616 56.3006 135.719 53.9449 137.691 52.1886C139.664 50.4323 142.348 49.4143 145.173 49.3517H145.158Z" stroke="#2D2D2D" stroke-width="2.4276" stroke-linecap="round" stroke-linejoin="round"/>
<path d="M28.5587 22.7715C28.5587 22.8759 28.5587 22.9742 28.5587 23.0786C28.5587 24.3153 28.3719 25.5399 28.0089 26.6824C27.646 27.8249 27.114 28.8631 26.4433 29.7375C25.7727 30.612 24.9765 31.3056 24.1002 31.7789C23.224 32.2521 22.2848 32.4957 21.3364 32.4957C21.1762 32.4957 21.0254 32.4957 20.8652 32.4957V49.2474C21.0207 49.2474 21.1715 49.2167 21.3364 49.2167C23.2205 49.2794 25.0114 50.2995 26.327 52.0592C27.6426 53.819 28.3789 56.1793 28.3789 58.6369C28.3789 61.0944 27.6426 63.4547 26.327 65.2145C25.0114 66.9743 23.2205 67.9943 21.3364 68.057C21.1762 68.057 21.0254 68.057 20.8652 68.0263V84.8026C21.0207 84.8026 21.1715 84.7719 21.3364 84.7719C23.2518 84.7719 25.0889 85.764 26.4433 87.5301C27.7978 89.2961 28.5587 91.6914 28.5587 94.1889C28.5587 94.2934 28.5587 94.3917 28.5587 94.4961H56.421V22.7715H28.5587Z" stroke="#2D2D2D" stroke-width="2.4276" stroke-linecap="round" stroke-linejoin="round"/>
<path d="M42.0561 77.7814L43.5347 77.7814L43.5347 80.0435L50.0947 80.0435L50.0947 81.9084L43.5347 81.9084L43.5347 84.1705L42.0561 84.1705L42.0561 77.7814ZM50.0947 72.2131L50.0947 74.0889L42.0561 74.0889L42.0561 72.2131L50.0947 72.2131ZM48.0147 62.5599C48.0147 62.5157 48.0239 62.4716 48.0423 62.4275C48.057 62.3833 48.0846 62.341 48.1251 62.3006L48.903 61.5613C49.326 61.8849 49.646 62.2914 49.863 62.7806C50.0763 63.2661 50.183 63.8417 50.183 64.5075C50.183 65.1181 50.08 65.6661 49.874 66.1516C49.6644 66.6335 49.3775 67.0436 49.0133 67.382C48.6455 67.7167 48.2115 67.9742 47.7113 68.1544C47.2074 68.3346 46.6611 68.4247 46.0726 68.4247C45.4731 68.4247 44.9232 68.3218 44.423 68.1158C43.9191 67.9098 43.485 67.6229 43.1209 67.2551C42.7567 66.8836 42.4735 66.4404 42.2712 65.9254C42.0689 65.4105 41.9678 64.8422 41.9678 64.2206C41.9678 63.919 41.9954 63.6358 42.0505 63.3709C42.102 63.1024 42.1756 62.8523 42.2712 62.6206C42.3632 62.3888 42.4754 62.1755 42.6078 61.9806C42.7365 61.7856 42.88 61.6128 43.0381 61.4619L43.8823 62.0909C43.9338 62.1314 43.9816 62.1792 44.0257 62.2344C44.0662 62.2895 44.0864 62.3668 44.0864 62.4661C44.0864 62.5323 44.0717 62.5948 44.0423 62.6537C44.0128 62.7125 43.9779 62.7751 43.9374 62.8413C43.8933 62.9075 43.8473 62.981 43.7995 63.062C43.748 63.1392 43.702 63.233 43.6616 63.3433C43.6174 63.45 43.5807 63.5769 43.5512 63.724C43.5218 63.8675 43.5071 64.0367 43.5071 64.2316C43.5071 64.57 43.5678 64.879 43.6892 65.1585C43.8069 65.4381 43.9779 65.679 44.2023 65.8813C44.423 66.0799 44.6915 66.2362 45.0078 66.3503C45.3241 66.4606 45.6791 66.5158 46.0726 66.5158C46.4846 66.5158 46.8506 66.4606 47.1706 66.3503C47.4906 66.2362 47.7609 66.0836 47.9816 65.8923C48.1986 65.6974 48.3641 65.4712 48.4782 65.2137C48.5922 64.9562 48.6492 64.6804 48.6492 64.3861C48.6492 64.2169 48.6418 64.0624 48.6271 63.9227C48.6087 63.7829 48.5793 63.6541 48.5389 63.5364C48.4984 63.4151 48.4469 63.301 48.3844 63.1944C48.3182 63.084 48.2372 62.9737 48.1416 62.8633C48.1048 62.8192 48.0754 62.7714 48.0533 62.7199C48.0276 62.6684 48.0147 62.6151 48.0147 62.5599ZM45.3112 56.0856L45.3112 55.7877C45.3112 55.5118 45.2248 55.3132 45.0519 55.1918L42.4257 53.3822C42.2823 53.2828 42.1848 53.1707 42.1333 53.0456C42.0818 52.9169 42.0561 52.7605 42.0561 52.5766L42.0561 50.9546L45.3057 53.338C45.4234 53.4226 45.5209 53.5109 45.5981 53.6028C45.6754 53.6948 45.7398 53.7886 45.7912 53.8842C45.8427 53.7445 45.9145 53.6176 46.0064 53.5035C46.0947 53.3858 46.2142 53.2792 46.365 53.1835L50.0947 50.7559L50.0947 52.4221C50.0947 52.5288 50.0874 52.6208 50.0727 52.698C50.0579 52.7716 50.0359 52.8359 50.0064 52.8911C49.977 52.9463 49.9421 52.9941 49.9016 53.0346C49.8575 53.075 49.8078 53.1136 49.7527 53.1504L46.9554 54.9711C46.8524 55.0373 46.7807 55.1219 46.7402 55.2249C46.6961 55.3242 46.674 55.4603 46.674 55.6332L46.674 56.0856L50.0947 56.0856L50.0947 57.9505L42.0561 57.9505L42.0561 56.0856L45.3112 56.0856ZM42.0561 42.1394L43.4905 42.1394L43.4905 45.4387L45.3664 45.4387L45.3664 42.9118L46.7457 42.9118L46.7457 45.4387L48.6602 45.4387L48.6602 42.1394L50.0947 42.1394L50.0947 47.3146L42.0561 47.3146L42.0561 42.1394ZM42.0561 32.4794L43.5347 32.4794L43.5347 34.7415L50.0947 34.7415L50.0947 36.6064L43.5347 36.6064L43.5347 38.8684L42.0561 38.8684L42.0561 32.4794Z" fill="#2D2D2D"/>
</g>
<defs>
<filter id="filter0_d_3121_2860" x="14.4349" y="19.1866" width="137.874" height="84.6306" filterUnits="userSpaceOnUse" color-interpolation-filters="sRGB">
<feFlood flood-opacity="0" result="BackgroundImageFix"/>
<feColorMatrix in="SourceAlpha" type="matrix" values="0 0 0 0 0 0 0 0 0 0 0 0 0 0 0 0 0 0 127 0" result="hardAlpha"/>
<feMorphology radius="1.89688" operator="erode" in="SourceAlpha" result="effect1_dropShadow_3121_2860"/>
<feOffset dy="2.84533"/>
<feGaussianBlur stdDeviation="3.55666"/>
<feColorMatrix type="matrix" values="0 0 0 0 0 0 0 0 0 0 0 0 0 0 0 0 0 0 0.2 0"/>
<feBlend mode="normal" in2="BackgroundImageFix" result="effect1_dropShadow_3121_2860"/>
<feBlend mode="normal" in="SourceGraphic" in2="effect1_dropShadow_3121_2860" result="shape"/>
</filter>
</defs>
</svg>
